<?xml version="1.0" encoding="utf-8"?>
<!-- Generator: Adobe Illustrator 24.2.1, SVG Export Plug-In . SVG Version: 6.00 Build 0)  -->
<svg version="1.1" id="Camada_1" xmlns="http://www.w3.org/2000/svg" xmlns:xlink="http://www.w3.org/1999/xlink" x="0px" y="0px"
	 viewBox="0 0 309.7 207.2" style="enable-background:new 0 0 309.7 207.2;" xml:space="preserve">
<style type="text/css">
	.st0{fill:url(#SVGID_1_);}
	.st1{fill:none;stroke:#E43959;stroke-width:2;stroke-miterlimit:10;}
</style>
<linearGradient id="SVGID_1_" gradientUnits="userSpaceOnUse" x1="154.838" y1="207.2338" x2="154.838" y2="0.5265">
	<stop  offset="0" style="stop-color:#E43959;stop-opacity:0"/>
	<stop  offset="0.4661" style="stop-color:#E43959;stop-opacity:0.4592"/>
	<stop  offset="1" style="stop-color:#E43959;stop-opacity:0.9"/>
</linearGradient>
<path class="st0" d="M0.8,180.4c0,0,25.5-34.2,38.2-35.6c8.4-0.9,17.1,20.4,24.3,19.8c10.3-0.9,33.7-54.2,54.1-61.1
	c8.7-2.9,19.2,26.7,28.8,26c18.4-1.4,36.5-66.5,59.6-71.7c10.7-2.4,23.7,26.5,34.1,27.4c15.5,1.4,68.9-84.8,68.9-84.8v206.7H0.8
	V180.4z"/>
<path class="st1" d="M0.8,180.4c0,0,25.5-34.2,38.2-35.6c8.4-0.9,17.1,20.4,24.3,19.8c10.3-0.9,33.7-54.2,54.1-61.1
	c8.7-2.9,19.2,26.7,28.8,26c18.4-1.4,36.5-66.5,59.6-71.7c10.7-2.4,23.7,26.5,34.1,27.4c15.5,1.4,68.9-84.8,68.9-84.8"/>
</svg>
