<?xml version="1.0" encoding="utf-8"?>
<!-- Generator: Adobe Illustrator 24.2.1, SVG Export Plug-In . SVG Version: 6.00 Build 0)  -->
<svg version="1.1" id="Camada_1" xmlns="http://www.w3.org/2000/svg" xmlns:xlink="http://www.w3.org/1999/xlink" x="0px" y="0px"
	 viewBox="0 0 67 80" style="enable-background:new 0 0 67 80;" xml:space="preserve">
<style type="text/css">
	.st0{fill:#FFFFFF;}
	.st1{opacity:0.8;fill:#FFFFFF;}
</style>
<g>
	<path class="st0" d="M6,80L6,80c-3.3,0-6-2.7-6-6L0,6c0-3.3,2.7-6,6-6h0c3.3,0,6,2.7,6,6v68C12,77.3,9.3,80,6,80z"/>
	<path class="st1" d="M63.8,77.9L63.8,77.9c-2.5,2-6.1,1.5-8.1-1L23.9,36.2c-2-2.5-1.5-6.1,1-8.1l0,0c2.5-2,6.1-1.5,8.1,1l31.7,40.6
		C66.7,72.3,66.3,75.9,63.8,77.9z"/>
	<path class="st0" d="M27.5,80L27.5,80c-3.3,0-6-2.7-6-6V32c0-3.3,2.7-6,6-6h0c3.3,0,6,2.7,6,6v42C33.5,77.3,30.8,80,27.5,80z"/>
	<path class="st0" d="M61,80L61,80c-3.3,0-6-2.7-6-6V32c0-3.3,2.7-6,6-6h0c3.3,0,6,2.7,6,6v42C67,77.3,64.3,80,61,80z"/>
</g>
</svg>
